<?xml version="1.0" encoding="utf-8"?>
<!-- Generator: Adobe Illustrator 19.1.0, SVG Export Plug-In . SVG Version: 6.00 Build 0)  -->
<svg version="1.1" id="Layer_1" xmlns="http://www.w3.org/2000/svg" xmlns:xlink="http://www.w3.org/1999/xlink" x="0px" y="0px"
	 viewBox="0 0 153.4 153.4" enable-background="new 0 0 153.4 153.4" xml:space="preserve">
<g>
	<defs>
		<circle id="SVGID_3_" cx="76.7" cy="76.7" r="76.7"/>
	</defs>
	<use xlink:href="#SVGID_3_"  overflow="visible" fill="#2B2B2A"/>
	<clipPath id="SVGID_1_">
		<use xlink:href="#SVGID_3_"  overflow="visible"/>
	</clipPath>
	<g clip-path="url(#SVGID_1_)">
		<g>
			<rect x="60.8" y="31.3" fill="#FFFFFF" width="29.4" height="29.4"/>
			<path fill="#2B2B2A" d="M89.6,31.9v28.2H61.5V31.9H89.6 M90.9,30.7H60.2v30.7h30.6V30.7L90.9,30.7z"/>
		</g>
		<g>
			<rect x="30.2" y="31.3" fill="#FFFFFF" width="29.4" height="29.4"/>
			<path fill="#2B2B2A" d="M59,31.9v28.2H30.8V31.9H59 M60.2,30.7H29.6v30.7h30.6V30.7L60.2,30.7z"/>
		</g>
		<g>
			<rect x="60.8" y="0.7" fill="#FFFFFF" width="29.4" height="29.4"/>
			<path fill="#2B2B2A" d="M89.6,1.3v28.2H61.5V1.3H89.6 M90.9,0H60.2v30.7h30.6V0L90.9,0z"/>
		</g>
		<g>
			<rect x="91.5" y="31.3" fill="#FFFFFF" width="29.4" height="29.4"/>
			<path fill="#2B2B2A" d="M120.2,31.9v28.2H92.1V31.9H120.2 M121.5,30.7H90.9v30.7h30.6V30.7L121.5,30.7z"/>
		</g>
		<g>
			<rect x="91.5" y="0.7" fill="#FFFFFF" width="29.4" height="29.4"/>
			<path fill="#2B2B2A" d="M120.2,1.3v28.2H92.1V1.3H120.2 M121.5,0H90.9v30.7h30.6V0L121.5,0z"/>
		</g>
		<g>
			<rect x="30.2" y="0.7" fill="#FFFFFF" width="29.4" height="29.4"/>
			<path fill="#2B2B2A" d="M59,1.3v28.2H30.8V1.3H59 M60.2,0H29.6v30.7h30.6V0L60.2,0z"/>
		</g>
		<g>
			<path fill="#2B2B2A" d="M89.6-29.4v28.2H61.5v-28.2H89.6 M90.9-30.6H60.2V0h30.6V-30.6L90.9-30.6z"/>
		</g>
		<g>
			<path fill="#2B2B2A" d="M120.2-29.4v28.2H92.1v-28.2H120.2 M121.5-30.6H90.9V0h30.6V-30.6L121.5-30.6z"/>
		</g>
		<g>
			<path fill="#2B2B2A" d="M59-29.4v28.2H30.8v-28.2H59 M60.2-30.6H29.6V0h30.6V-30.6L60.2-30.6z"/>
		</g>
		<g>
			<path fill="#2B2B2A" d="M89.6,154.6v28.2H61.5v-28.2H89.6 M90.9,153.4H60.2V184h30.6V153.4L90.9,153.4z"/>
		</g>
		<g>
			<path fill="#2B2B2A" d="M59,154.6v28.2H30.8v-28.2H59 M60.2,153.4H29.6V184h30.6V153.4L60.2,153.4z"/>
		</g>
		<g>
			<path fill="#2B2B2A" d="M28.4,154.6v28.2H0.2v-28.2H28.4 M29.6,153.4H-1V184h30.6V153.4L29.6,153.4z"/>
		</g>
		<g>
			<rect x="60.8" y="123.3" fill="#FFFFFF" width="29.4" height="29.4"/>
			<path fill="#2B2B2A" d="M89.6,123.9v28.2H61.5v-28.2H89.6 M90.9,122.7H60.2v30.7h30.6V122.7L90.9,122.7z"/>
		</g>
		<g>
			<path fill="#2B2B2A" d="M120.2,154.6v28.2H92.1v-28.2H120.2 M121.5,153.4H90.9V184h30.6V153.4L121.5,153.4z"/>
		</g>
		<g>
			<rect x="91.5" y="123.3" fill="#FFFFFF" width="29.4" height="29.4"/>
			<path fill="#2B2B2A" d="M120.2,123.9v28.2H92.1v-28.2H120.2 M121.5,122.7H90.9v30.7h30.6V122.7L121.5,122.7z"/>
		</g>
		<g>
			<rect x="91.5" y="62" fill="#FFFFFF" width="29.4" height="29.4"/>
			<path fill="#2B2B2A" d="M120.2,62.6v28.2H92.1V62.6H120.2 M121.5,61.4H90.9V92h30.6V61.4L121.5,61.4z"/>
		</g>
		<g>
			<path fill="#2B2B2A" d="M150.9-29.4v28.2h-28.2v-28.2H150.9 M152.1-30.6h-30.6V0h30.6V-30.6L152.1-30.6z"/>
		</g>
		<g>
			<path fill="#2B2B2A" d="M150.9,154.6v28.2h-28.2v-28.2H150.9 M152.1,153.4h-30.6V184h30.6V153.4L152.1,153.4z"/>
		</g>
		<g>
			<rect x="122.1" y="123.3" fill="#FFFFFF" width="29.4" height="29.4"/>
			<path fill="#2B2B2A" d="M150.9,123.9v28.2h-28.2v-28.2H150.9 M152.1,122.7h-30.6v30.7h30.6V122.7L152.1,122.7z"/>
		</g>
		<g>
			<rect x="-0.4" y="31.3" fill="#FFFFFF" width="29.4" height="29.4"/>
			<path fill="#2B2B2A" d="M28.4,31.9v28.2H0.2V31.9H28.4 M29.6,30.7H-1v30.7h30.6V30.7L29.6,30.7z"/>
		</g>
		<g>
			<rect x="-0.4" y="62" fill="#FFFFFF" width="29.4" height="29.4"/>
			<path fill="#2B2B2A" d="M28.4,62.6v28.2H0.2V62.6H28.4 M29.6,61.4H-1V92h30.6V61.4L29.6,61.4z"/>
		</g>
		<g>
			<rect x="-0.4" y="0.7" fill="#FFFFFF" width="29.4" height="29.4"/>
			<path fill="#2B2B2A" d="M28.4,1.3v28.2H0.2V1.3H28.4 M29.6,0H-1v30.7h30.6V0L29.6,0z"/>
		</g>
		<g>
			<path fill="#2B2B2A" d="M28.4-29.4v28.2H0.2v-28.2H28.4 M29.6-30.6H-1V0h30.6V-30.6L29.6-30.6z"/>
		</g>
	</g>
</g>
<g>
	<path fill="#2B2B2A" d="M76.7,1c41.7,0,75.7,34,75.7,75.7s-34,75.7-75.7,75.7S1,118.5,1,76.7S35,1,76.7,1 M76.7,0
		C34.3,0,0,34.3,0,76.7s34.3,76.7,76.7,76.7s76.7-34.3,76.7-76.7S119.1,0,76.7,0L76.7,0z"/>
</g>
</svg>
