<?xml version="1.0" encoding="utf-8"?>
<!-- Generator: Adobe Illustrator 19.1.0, SVG Export Plug-In . SVG Version: 6.00 Build 0)  -->
<svg version="1.1" id="Layer_1" xmlns="http://www.w3.org/2000/svg" xmlns:xlink="http://www.w3.org/1999/xlink" x="0px" y="0px"
	 viewBox="0 0 153.4 153.4" enable-background="new 0 0 153.4 153.4" xml:space="preserve">
<g>
	<path fill="#2B2B2A" d="M76.7,152.9c-42,0-76.2-34.2-76.2-76.2S34.7,0.5,76.7,0.5c42,0,76.2,34.2,76.2,76.2S118.7,152.9,76.7,152.9
		z"/>
	<path fill="#2B2B2A" d="M76.7,1c41.7,0,75.7,34,75.7,75.7c0,41.7-34,75.7-75.7,75.7S1,118.5,1,76.7C1,35,35,1,76.7,1 M76.7,0
		C34.3,0,0,34.3,0,76.7c0,42.4,34.3,76.7,76.7,76.7s76.7-34.3,76.7-76.7C153.4,34.3,119.1,0,76.7,0L76.7,0z"/>
</g>
<g>
	<defs>
		<circle id="SVGID_3_" cx="76.7" cy="257.8" r="76.7"/>
	</defs>
	<use xlink:href="#SVGID_3_"  overflow="visible" fill="#2B2B2A"/>
	<clipPath id="SVGID_1_">
		<use xlink:href="#SVGID_3_"  overflow="visible"/>
	</clipPath>
	<g clip-path="url(#SVGID_1_)">
		<g>
			<rect x="60.8" y="151.1" fill="#FFFFFF" width="29.4" height="29.4"/>
			<path fill="#2B2B2A" d="M89.6,151.8V180H61.5v-28.2H89.6 M90.9,150.5H60.2v30.7h30.6V150.5L90.9,150.5z"/>
		</g>
		<g>
			<rect x="91.5" y="151.1" fill="#FFFFFF" width="29.4" height="29.4"/>
			<path fill="#2B2B2A" d="M120.2,151.8V180H92.1v-28.2H120.2 M121.5,150.5H90.9v30.7h30.6V150.5L121.5,150.5z"/>
		</g>
		<g>
			<rect x="30.2" y="151.1" fill="#FFFFFF" width="29.4" height="29.4"/>
			<path fill="#2B2B2A" d="M59,151.8V180H30.8v-28.2H59 M60.2,150.5H29.6v30.7h30.6V150.5L60.2,150.5z"/>
		</g>
		<g>
			<rect x="122.1" y="151.1" fill="#FFFFFF" width="29.4" height="29.4"/>
			<path fill="#2B2B2A" d="M150.9,151.8V180h-28.2v-28.2H150.9 M152.1,150.5h-30.6v30.7h30.6V150.5L152.1,150.5z"/>
		</g>
		<g>
			<rect x="-0.4" y="151.1" fill="#FFFFFF" width="29.4" height="29.4"/>
			<path fill="#2B2B2A" d="M28.4,151.8V180H0.2v-28.2H28.4 M29.6,150.5H-1v30.7h30.6V150.5L29.6,150.5z"/>
		</g>
	</g>
</g>
<g>
	<path fill="#FFFFFF" d="M72,109c0-11.8,0-23.3,0-35.2c-1.9-0.2-3.8-0.3-6.2-0.5c-1.1-5.8,4.3-2.6,6.1-4.4c1-3.6,0.5-6.4-3.6-8.7
		c-6.2-3.5-8.5-11-6.5-17.7c2.2-7.1,8.8-11.7,16.4-11.5c7.4,0.2,13.8,5,15.7,11.9c1.9,6.8-0.9,13.8-6.8,17.7
		c-4.3,2.8-4.3,2.8-3.5,8.2c1.6,2.1,7.1-1.9,6.1,4.4c-2,0.1-3.9,0.3-6.1,0.4c0,11.7,0,23.3,0,34.9c5.4,0.9,11.5-2.2,18.9-10
		c-2.3-1.9-4.7-3.8-8-6.5c10.5-1.6,19.7-2.9,29.6-4.4c-1.4,9.6-2.7,18.7-4.2,28.5c-3.1-2.9-5.7-5.3-8.4-7.9
		c-2.3,1.7-4.4,3.4-6.7,5.1c-5.9,4.3-12.6,7-19.9,7.7c-3.1,0.3-4.4,1.5-4.7,4.5c-0.2,1.3-1.4,2.5-2.2,3.8c-0.9-1.3-2-2.5-2.7-3.9
		c-0.5-1.1-0.6-2.4-0.9-3.9c-11.6-0.7-21.7-4.9-30.5-13c-2.6,2.4-5,4.6-8,7.4c-1.5-9.6-2.9-18.6-4.4-28.2c9.8,1.4,19,2.8,28.6,4.2
		c-2.7,2.4-5,4.6-8,7.2C58.4,104.5,63.9,109,72,109z M86.4,46.9c0-4.4-3.8-8.2-8.4-8.3c-4.8-0.1-8.8,3.6-8.8,8.3
		c0,4.5,3.8,8.2,8.4,8.3C82.4,55.3,86.4,51.5,86.4,46.9z"/>
</g>
</svg>
