<?xml version="1.0" encoding="utf-8"?>
<!-- Generator: Adobe Illustrator 19.1.0, SVG Export Plug-In . SVG Version: 6.00 Build 0)  -->
<svg version="1.1" id="Layer_1" xmlns="http://www.w3.org/2000/svg" xmlns:xlink="http://www.w3.org/1999/xlink" x="0px" y="0px"
	 viewBox="0 0 153.4 153.4" enable-background="new 0 0 153.4 153.4" xml:space="preserve">
<g>
	<path fill="#12C895" d="M76.7,152.9c-42,0-76.2-34.2-76.2-76.2S34.7,0.5,76.7,0.5c42,0,76.2,34.2,76.2,76.2S118.7,152.9,76.7,152.9
		z"/>
	<path fill="#12C895" d="M76.7,1c41.7,0,75.7,34,75.7,75.7c0,41.7-34,75.7-75.7,75.7S1,118.5,1,76.7C1,35,35,1,76.7,1 M76.7,0
		C34.3,0,0,34.3,0,76.7c0,42.4,34.3,76.7,76.7,76.7c42.4,0,76.7-34.3,76.7-76.7C153.4,34.3,119.1,0,76.7,0L76.7,0z"/>
</g>
<g>
	<path fill="#FFFFFF" d="M46.5,32.9c-0.8,5.5,3.3,6.8,6.7,9.3c4.5,3.4,8,8.1,11.6,12.6c2,2.5,3.1,5.8,4.6,8.7
		c2.5-2.2,4.9-4.7,7.7-6.7c10.9-7.7,23.2-10.2,36.3-9.3c6.1,0.5,12.1,1.4,18.2,2.3c0.7,0.1,1.7,1,1.7,1.6c0,0.8-0.5,2.3-1.1,2.4
		c-8.4,2.6-11,10.1-14.2,16.9c-2.5,5.2-4.1,10.7-6.2,16.1c-4.1,10.2-11,17.9-21.6,20.9c-6.3,1.8-13.3,1.4-20,1.4
		c-2.7,0-4.6,0.5-6.8,2.1c-4.3,3.2-8.9,6.1-13.5,8.8c-1.2,0.7-3.1,0.5-4.7,0.2c-0.7-0.1-1.7-1.3-1.7-2c0-0.7,0.9-1.9,1.7-2.1
		c12.9-4.5,21.4-13.5,28.2-25.1c6.3-10.7,15.8-18.6,26.2-25.4c6.8-4.5,14.1-8.4,21.3-12.6c-0.5-0.2-1.3-0.8-2-0.8
		c-6,0.1-12,0.3-18.1,0.6c-10.8,0.6-19.7,6-28.5,11.7c-0.9,0.6-1.2,3-0.8,4.3c4.3,15.1-3.1,29.4-15,36.8c-0.9,0.6-2.7,1-3.3,0.5
		c-0.7-0.5-0.9-2.2-0.7-3.3c2.1-11.3,2.7-22.6,0.7-34c-0.7-4.4-1.5-8.7-2.2-13.1c-0.5,0-0.9,0-1.4,0.1c-0.2,0.9-0.5,1.7-0.5,2.6
		c-0.2,11-0.2,22-0.5,33c-0.1,3.3-1,6.7-1.6,10c-0.5,2.7-2.2,2.8-3.7,1.2c-2.2-2.2-4.1-4.7-5.9-7.3c-6.2-9.1-6-18.7-1-28.2
		c5.1-9.7,8.3-19.7,8.3-30.7c0-1.1,0.2-2.3,0.4-3.4C45.6,33,46,33,46.5,32.9z M115.4,60.8c-2,0.9-3.2,1.3-4.1,2
		c-4.5,3.3-8.7,7-13.4,10.1c-10.6,7.2-18.3,17-25.3,27.4c-0.6,1-0.9,2.2-1.3,3.3c1.2,0.5,2.4,1.2,3.7,1.3
		c13.8,0.7,23.6-6.3,29.8-17.7C109.1,79.3,111.6,70.4,115.4,60.8z"/>
</g>
</svg>
